<svg width="290" height="182" viewBox="0 0 290 182" fill="none" xmlns="http://www.w3.org/2000/svg">
<path fill-rule="evenodd" clip-rule="evenodd" d="M8.32 0C3.72499 0 0 3.725 0 8.32001V173.68C0 176.871 1.7964 179.642 4.43307 181.038C2.97678 179.54 2.08 177.495 2.08 175.24V9.88001C2.08 5.285 5.80499 1.56 10.4 1.56H282.88C284.284 1.56 285.607 1.90778 286.767 2.52189C285.255 0.966382 283.14 0 280.8 0H8.32Z" fill="white" fill-opacity="0.04"/>
<rect width="289.12" height="182" rx="8.32" fill="white" fill-opacity="0.04"/>
<path d="M32.6786 38.2402V37.2173L38.5155 31.5008C39.0504 30.9792 39.4516 30.5246 39.719 30.1368C39.9864 29.7356 40.167 29.3612 40.2606 29.0136C40.3542 28.6659 40.401 28.3383 40.401 28.0307C40.401 27.215 40.1202 26.5732 39.5585 26.1052C39.0103 25.6371 38.1946 25.4031 37.1115 25.4031C36.2824 25.4031 35.5469 25.5302 34.9051 25.7842C34.2766 26.0383 33.735 26.4328 33.2804 26.9676L32.2574 26.0851C32.8057 25.4432 33.5077 24.9485 34.3635 24.6008C35.2193 24.2531 36.1754 24.0793 37.2318 24.0793C38.1812 24.0793 39.0036 24.2331 39.6989 24.5406C40.3943 24.8348 40.9292 25.2694 41.3036 25.8444C41.6914 26.4194 41.8853 27.0947 41.8853 27.8703C41.8853 28.3249 41.8184 28.7729 41.6847 29.2141C41.5643 29.6554 41.337 30.1234 41.0027 30.6182C40.6818 31.0996 40.2071 31.6478 39.5786 32.263L34.2231 37.5181L33.8219 36.9565H42.5271V38.2402H32.6786ZM44.6156 41.1687L45.4982 37.458L45.6587 38.3205C45.3511 38.3205 45.0904 38.2202 44.8764 38.0196C44.6758 37.819 44.5755 37.5583 44.5755 37.2373C44.5755 36.9164 44.6758 36.6557 44.8764 36.4551C45.0904 36.2545 45.3444 36.1542 45.6386 36.1542C45.9462 36.1542 46.1935 36.2612 46.3808 36.4751C46.5813 36.6891 46.6816 36.9432 46.6816 37.2373C46.6816 37.3443 46.6749 37.4513 46.6616 37.5583C46.6482 37.6652 46.6214 37.7856 46.5813 37.9193C46.5412 38.053 46.4877 38.2135 46.4209 38.4007L45.5784 41.1687H44.6156ZM54.1667 38.3606C53.0836 38.3606 52.1208 38.0798 51.2783 37.5181C50.4359 36.9432 49.774 36.1275 49.2926 35.0711C48.8112 34.0013 48.5705 32.7176 48.5705 31.2199C48.5705 29.7223 48.8112 28.4453 49.2926 27.3889C49.774 26.3191 50.4359 25.5034 51.2783 24.9418C52.1208 24.3668 53.0836 24.0793 54.1667 24.0793C55.2498 24.0793 56.2126 24.3668 57.055 24.9418C57.8975 25.5034 58.5594 26.3191 59.0408 27.3889C59.5356 28.4453 59.7829 29.7223 59.7829 31.2199C59.7829 32.7176 59.5356 34.0013 59.0408 35.0711C58.5594 36.1275 57.8975 36.9432 57.055 37.5181C56.2126 38.0798 55.2498 38.3606 54.1667 38.3606ZM54.1667 37.0368C54.9958 37.0368 55.7178 36.8161 56.333 36.3748C56.9481 35.9202 57.4295 35.265 57.7771 34.4092C58.1248 33.54 58.2986 32.4769 58.2986 31.2199C58.2986 29.963 58.1248 28.9066 57.7771 28.0508C57.4295 27.1816 56.9481 26.5264 56.333 26.0851C55.7178 25.6304 54.9958 25.4031 54.1667 25.4031C53.3644 25.4031 52.649 25.6304 52.0205 26.0851C51.392 26.5264 50.9039 27.1816 50.5563 28.0508C50.2086 28.9066 50.0348 29.963 50.0348 31.2199C50.0348 32.4769 50.2086 33.54 50.5563 34.4092C50.9039 35.265 51.392 35.9202 52.0205 36.3748C52.649 36.8161 53.3644 37.0368 54.1667 37.0368ZM67.4473 38.3606C66.3641 38.3606 65.4014 38.0798 64.5589 37.5181C63.7165 36.9432 63.0546 36.1275 62.5732 35.0711C62.0918 34.0013 61.8511 32.7176 61.8511 31.2199C61.8511 29.7223 62.0918 28.4453 62.5732 27.3889C63.0546 26.3191 63.7165 25.5034 64.5589 24.9418C65.4014 24.3668 66.3641 24.0793 67.4473 24.0793C68.5304 24.0793 69.4932 24.3668 70.3356 24.9418C71.1781 25.5034 71.84 26.3191 72.3214 27.3889C72.8161 28.4453 73.0635 29.7223 73.0635 31.2199C73.0635 32.7176 72.8161 34.0013 72.3214 35.0711C71.84 36.1275 71.1781 36.9432 70.3356 37.5181C69.4932 38.0798 68.5304 38.3606 67.4473 38.3606ZM67.4473 37.0368C68.2763 37.0368 68.9984 36.8161 69.6135 36.3748C70.2287 35.9202 70.71 35.265 71.0577 34.4092C71.4054 33.54 71.5792 32.4769 71.5792 31.2199C71.5792 29.963 71.4054 28.9066 71.0577 28.0508C70.71 27.1816 70.2287 26.5264 69.6135 26.0851C68.9984 25.6304 68.2763 25.4031 67.4473 25.4031C66.645 25.4031 65.9296 25.6304 65.3011 26.0851C64.6726 26.5264 64.1845 27.1816 63.8368 28.0508C63.4892 28.9066 63.3153 29.963 63.3153 31.2199C63.3153 32.4769 63.4892 33.54 63.8368 34.4092C64.1845 35.265 64.6726 35.9202 65.3011 36.3748C65.9296 36.8161 66.645 37.0368 67.4473 37.0368ZM80.7279 38.3606C79.6447 38.3606 78.6819 38.0798 77.8395 37.5181C76.9971 36.9432 76.3352 36.1275 75.8538 35.0711C75.3724 34.0013 75.1317 32.7176 75.1317 31.2199C75.1317 29.7223 75.3724 28.4453 75.8538 27.3889C76.3352 26.3191 76.9971 25.5034 77.8395 24.9418C78.6819 24.3668 79.6447 24.0793 80.7279 24.0793C81.811 24.0793 82.7738 24.3668 83.6162 24.9418C84.4586 25.5034 85.1206 26.3191 85.602 27.3889C86.0967 28.4453 86.3441 29.7223 86.3441 31.2199C86.3441 32.7176 86.0967 34.0013 85.602 35.0711C85.1206 36.1275 84.4586 36.9432 83.6162 37.5181C82.7738 38.0798 81.811 38.3606 80.7279 38.3606ZM80.7279 37.0368C81.5569 37.0368 82.279 36.8161 82.8941 36.3748C83.5092 35.9202 83.9906 35.265 84.3383 34.4092C84.686 33.54 84.8598 32.4769 84.8598 31.2199C84.8598 29.963 84.686 28.9066 84.3383 28.0508C83.9906 27.1816 83.5092 26.5264 82.8941 26.0851C82.279 25.6304 81.5569 25.4031 80.7279 25.4031C79.9255 25.4031 79.2101 25.6304 78.5817 26.0851C77.9532 26.5264 77.4651 27.1816 77.1174 28.0508C76.7698 28.9066 76.5959 29.963 76.5959 31.2199C76.5959 32.4769 76.7698 33.54 77.1174 34.4092C77.4651 35.265 77.9532 35.9202 78.5817 36.3748C79.2101 36.8161 79.9255 37.0368 80.7279 37.0368Z" fill="white"/>
<path d="M24.5757 37.2574C23.8402 37.244 23.1248 37.1838 22.4295 37.0769C21.7341 36.9565 21.1725 36.7961 20.7446 36.5955V34.8906C21.1992 35.1045 21.7809 35.2917 22.4896 35.4522C23.1983 35.6126 23.8937 35.6996 24.5757 35.7129V31.6612C23.9204 31.474 23.3454 31.2734 22.8507 31.0595C22.3693 30.8322 21.9748 30.5781 21.6672 30.2973C21.3597 30.0165 21.1257 29.6955 20.9652 29.3345C20.8181 28.9601 20.7446 28.5322 20.7446 28.0508C20.7446 27.3955 20.8984 26.8339 21.2059 26.3659C21.5268 25.8979 21.9748 25.5302 22.5498 25.2627C23.1248 24.9819 23.8001 24.8214 24.5757 24.7813V23.0162H25.8594V24.7613C26.5681 24.7746 27.2099 24.8549 27.7849 25.002C28.3733 25.1357 28.9082 25.3028 29.3896 25.5034L28.848 26.9877C28.4201 26.8139 27.9454 26.6668 27.4239 26.5464C26.9158 26.4127 26.3942 26.3258 25.8594 26.2857V30.3173C26.7419 30.5714 27.4774 30.8455 28.0657 31.1397C28.6541 31.4205 29.0954 31.7749 29.3896 32.2028C29.6971 32.6173 29.8509 33.1589 29.8509 33.8275C29.8509 34.7635 29.5032 35.5257 28.8079 36.1141C28.1125 36.6891 27.1297 37.0434 25.8594 37.1772V39.4036H24.5757V37.2574ZM25.8594 35.6126C26.6483 35.5324 27.2233 35.3519 27.5844 35.0711C27.9454 34.7769 28.1259 34.4025 28.1259 33.9478C28.1259 33.6135 28.0591 33.3394 27.9253 33.1254C27.7916 32.8981 27.5576 32.7042 27.2233 32.5438C26.9024 32.3833 26.4477 32.2295 25.8594 32.0824V35.6126ZM24.5757 26.3258C24.0943 26.3525 23.6998 26.4395 23.3922 26.5865C23.0847 26.7203 22.8507 26.9008 22.6902 27.1281C22.5431 27.3554 22.4696 27.6162 22.4696 27.9104C22.4696 28.258 22.5297 28.5589 22.6501 28.813C22.7838 29.0537 23.0044 29.2609 23.312 29.4348C23.6196 29.5952 24.0408 29.7423 24.5757 29.8761V26.3258Z" fill="white"/>
<path opacity="0.4" d="M22.2398 53.8008H21.5846L23.5284 48.7048H24.2782L26.2147 53.8008H25.5377L24.999 52.4249H22.7786L22.2398 53.8008ZM23.8851 49.3964L22.9678 51.8497H24.8097L23.8851 49.3964ZM29.4776 53.8008H27.8469V48.7048H29.4776C31.072 48.7048 32.0402 49.724 32.0402 51.2528C32.0402 52.7743 31.072 53.8008 29.4776 53.8008ZM28.4803 49.2872V53.2184H29.4776C30.7152 53.2184 31.3923 52.4394 31.3923 51.2528C31.3923 50.0589 30.7152 49.2872 29.4776 49.2872H28.4803ZM35.0353 53.8008L33.2007 48.7048H33.8705L35.4284 53.0509L36.9791 48.7048H37.6343L35.7997 53.8008H35.0353ZM38.7936 53.8008H38.1384L40.0822 48.7048H40.832L42.7685 53.8008H42.0914L41.5527 52.4249H39.3323L38.7936 53.8008ZM40.4389 49.3964L39.5216 51.8497H41.3634L40.4389 49.3964ZM45.0195 53.8008H44.4007V48.7048H44.9831L47.7204 52.636V48.7048H48.3392V53.8008H47.7568L45.0195 49.8696V53.8008ZM52.5744 53.8445C51.1111 53.8445 50.1938 52.8107 50.1938 51.2528C50.1938 49.7094 51.1475 48.6611 52.6253 48.6611C53.7537 48.6611 54.5764 49.3163 54.7656 50.3719H54.0959C53.8993 49.6657 53.3606 49.2435 52.5962 49.2435C51.526 49.2435 50.8417 50.0734 50.8417 51.2528C50.8417 52.4249 51.4969 53.2621 52.5671 53.2621C53.3533 53.2621 53.8993 52.8471 54.0886 52.1337H54.7584C54.5691 53.1893 53.7246 53.8445 52.5744 53.8445ZM56.5788 53.8008V48.7048H59.8256V49.2872H57.2121V50.9179H59.3888V51.5003H57.2121V53.2184H59.9203V53.8008H56.5788Z" fill="white"/>
<rect x="18.7197" y="122.199" width="249.6" height="5.58806" rx="2.79403" fill="#D9D9D9" fill-opacity="0.16"/>
<rect x="194.416" y="143.416" width="73.168" height="20.168" rx="10.084" fill="#323031" stroke="#424242" stroke-width="0.832"/>
<path d="M214.317 155.68L216.877 150.08H217.461L220.021 155.68H219.397L217.045 150.424H217.285L214.933 155.68H214.317ZM215.325 154.184L215.501 153.704H218.757L218.933 154.184H215.325ZM222.46 155.72C222.06 155.72 221.7 155.629 221.38 155.448C221.065 155.266 220.817 155.016 220.636 154.696C220.455 154.37 220.364 153.997 220.364 153.576C220.364 153.149 220.455 152.776 220.636 152.456C220.817 152.136 221.065 151.888 221.38 151.712C221.7 151.53 222.06 151.44 222.46 151.44C222.828 151.44 223.156 151.522 223.444 151.688C223.737 151.853 223.969 152.096 224.14 152.416C224.316 152.73 224.404 153.117 224.404 153.576C224.404 154.029 224.319 154.416 224.148 154.736C223.977 155.056 223.745 155.301 223.452 155.472C223.164 155.637 222.833 155.72 222.46 155.72ZM222.5 155.216C222.799 155.216 223.065 155.149 223.3 155.016C223.54 154.877 223.727 154.685 223.86 154.44C223.999 154.189 224.068 153.901 224.068 153.576C224.068 153.245 223.999 152.957 223.86 152.712C223.727 152.466 223.54 152.277 223.3 152.144C223.065 152.005 222.799 151.936 222.5 151.936C222.207 151.936 221.943 152.005 221.708 152.144C221.473 152.277 221.287 152.466 221.148 152.712C221.009 152.957 220.94 153.245 220.94 153.576C220.94 153.901 221.009 154.189 221.148 154.44C221.287 154.685 221.473 154.877 221.708 155.016C221.943 155.149 222.207 155.216 222.5 155.216ZM224.084 155.68V154.416L224.14 153.568L224.06 152.72V149.744H224.628V155.68H224.084ZM227.29 155.68L225.426 151.48H226.018L227.73 155.376H227.45L229.186 151.48H229.746L227.874 155.68H227.29ZM233.053 155.68V154.752L233.029 154.6V153.048C233.029 152.69 232.928 152.416 232.725 152.224C232.528 152.032 232.232 151.936 231.837 151.936C231.565 151.936 231.306 151.981 231.061 152.072C230.816 152.162 230.608 152.282 230.437 152.432L230.181 152.008C230.394 151.826 230.65 151.688 230.949 151.592C231.248 151.49 231.562 151.44 231.893 151.44C232.437 151.44 232.856 151.576 233.149 151.848C233.448 152.114 233.597 152.522 233.597 153.072V155.68H233.053ZM231.605 155.72C231.29 155.72 231.016 155.669 230.781 155.568C230.552 155.461 230.376 155.317 230.253 155.136C230.13 154.949 230.069 154.736 230.069 154.496C230.069 154.277 230.12 154.08 230.221 153.904C230.328 153.722 230.498 153.578 230.733 153.472C230.973 153.36 231.293 153.304 231.693 153.304H233.141V153.728H231.709C231.304 153.728 231.021 153.8 230.861 153.944C230.706 154.088 230.629 154.266 230.629 154.48C230.629 154.72 230.722 154.912 230.909 155.056C231.096 155.2 231.357 155.272 231.693 155.272C232.013 155.272 232.288 155.2 232.517 155.056C232.752 154.906 232.922 154.693 233.029 154.416L233.157 154.808C233.05 155.085 232.864 155.306 232.597 155.472C232.336 155.637 232.005 155.72 231.605 155.72ZM237.284 151.44C237.625 151.44 237.924 151.506 238.18 151.64C238.441 151.768 238.644 151.965 238.788 152.232C238.937 152.498 239.012 152.834 239.012 153.24V155.68H238.444V153.296C238.444 152.853 238.332 152.52 238.108 152.296C237.889 152.066 237.58 151.952 237.18 151.952C236.881 151.952 236.62 152.013 236.396 152.136C236.177 152.253 236.006 152.426 235.884 152.656C235.766 152.88 235.708 153.152 235.708 153.472V155.68H235.14V151.48H235.684V152.632L235.596 152.416C235.729 152.112 235.942 151.874 236.236 151.704C236.529 151.528 236.878 151.44 237.284 151.44ZM242.29 155.72C241.874 155.72 241.501 155.629 241.17 155.448C240.845 155.261 240.589 155.008 240.402 154.688C240.215 154.362 240.122 153.992 240.122 153.576C240.122 153.154 240.215 152.784 240.402 152.464C240.589 152.144 240.845 151.893 241.17 151.712C241.501 151.53 241.874 151.44 242.29 151.44C242.647 151.44 242.97 151.509 243.258 151.648C243.546 151.786 243.773 151.994 243.938 152.272L243.514 152.56C243.37 152.346 243.191 152.189 242.978 152.088C242.765 151.986 242.533 151.936 242.282 151.936C241.983 151.936 241.714 152.005 241.474 152.144C241.234 152.277 241.045 152.466 240.906 152.712C240.767 152.957 240.698 153.245 240.698 153.576C240.698 153.906 240.767 154.194 240.906 154.44C241.045 154.685 241.234 154.877 241.474 155.016C241.714 155.149 241.983 155.216 242.282 155.216C242.533 155.216 242.765 155.165 242.978 155.064C243.191 154.962 243.37 154.808 243.514 154.6L243.938 154.888C243.773 155.16 243.546 155.368 243.258 155.512C242.97 155.65 242.647 155.72 242.29 155.72ZM246.767 155.72C246.33 155.72 245.946 155.629 245.615 155.448C245.285 155.261 245.026 155.008 244.839 154.688C244.653 154.362 244.559 153.992 244.559 153.576C244.559 153.16 244.647 152.792 244.823 152.472C245.005 152.152 245.25 151.901 245.559 151.72C245.874 151.533 246.226 151.44 246.615 151.44C247.01 151.44 247.359 151.53 247.663 151.712C247.973 151.888 248.215 152.138 248.391 152.464C248.567 152.784 248.655 153.154 248.655 153.576C248.655 153.602 248.653 153.632 248.647 153.664C248.647 153.69 248.647 153.72 248.647 153.752H244.991V153.328H248.343L248.119 153.496C248.119 153.192 248.053 152.922 247.919 152.688C247.791 152.448 247.615 152.261 247.391 152.128C247.167 151.994 246.909 151.928 246.615 151.928C246.327 151.928 246.069 151.994 245.839 152.128C245.61 152.261 245.431 152.448 245.303 152.688C245.175 152.928 245.111 153.202 245.111 153.512V153.6C245.111 153.92 245.181 154.202 245.319 154.448C245.463 154.688 245.661 154.877 245.911 155.016C246.167 155.149 246.458 155.216 246.783 155.216C247.039 155.216 247.277 155.17 247.495 155.08C247.719 154.989 247.911 154.85 248.071 154.664L248.391 155.032C248.205 155.256 247.97 155.426 247.687 155.544C247.41 155.661 247.103 155.72 246.767 155.72Z" fill="white"/>
<path d="M226.2 25.1295C226.2 24.7731 226.398 24.4461 226.713 24.28L229.913 22.5949C230.193 22.4475 230.528 22.4475 230.807 22.5949L234.007 24.28C234.323 24.4461 234.52 24.7731 234.52 25.1295V32.8394C234.52 33.3696 234.09 33.7994 233.56 33.7994H227.16C226.63 33.7994 226.2 33.3696 226.2 32.8394V25.1295Z" fill="url(#paint0_linear_802_220)"/>
<path d="M241 34.0216V24.8461H242.704V32.5798H247.502V34.0216H241Z" fill="white"/>
<path d="M251.916 34.1134C251.138 34.1134 250.456 33.9605 249.871 33.6546C249.294 33.34 248.844 32.9118 248.521 32.37C248.206 31.8282 248.049 31.2122 248.049 30.5218C248.049 29.8227 248.202 29.2067 248.508 28.6736C248.822 28.1318 249.25 27.708 249.792 27.4021C250.343 27.0963 250.967 26.9434 251.667 26.9434C252.348 26.9434 252.955 27.0919 253.489 27.389C254.022 27.6862 254.441 28.1056 254.747 28.6474C255.053 29.1892 255.206 29.8271 255.206 30.5611C255.206 30.6311 255.201 30.7097 255.193 30.7971C255.193 30.8845 255.188 30.9675 255.179 31.0461H249.346V29.9582H254.314L253.672 30.299C253.681 29.897 253.598 29.5431 253.423 29.2373C253.248 28.9314 253.008 28.6911 252.702 28.5163C252.405 28.3415 252.06 28.2542 251.667 28.2542C251.265 28.2542 250.911 28.3415 250.605 28.5163C250.308 28.6911 250.072 28.9358 249.897 29.2504C249.731 29.5562 249.648 29.9189 249.648 30.3383V30.6005C249.648 31.0199 249.744 31.3913 249.936 31.7146C250.129 32.038 250.399 32.287 250.749 32.4618C251.099 32.6366 251.501 32.7239 251.955 32.7239C252.348 32.7239 252.702 32.6628 253.017 32.5404C253.331 32.4181 253.611 32.2259 253.856 31.9637L254.734 32.973C254.419 33.34 254.022 33.624 253.541 33.825C253.069 34.0173 252.527 34.1134 251.916 34.1134Z" fill="white"/>
<path d="M258.497 29.0668H263.071V30.5087H258.497V29.0668ZM258.641 34.0216H256.937V24.8461H263.635V26.2749H258.641V34.0216Z" fill="white"/>
<path d="M265.126 34.0216V27.022H266.764V34.0216H265.126ZM265.951 25.8685C265.646 25.8685 265.392 25.7724 265.191 25.5802C264.999 25.3879 264.903 25.1563 264.903 24.8854C264.903 24.6058 264.999 24.3742 265.191 24.1907C265.392 23.9985 265.646 23.9023 265.951 23.9023C266.257 23.9023 266.506 23.9941 266.699 24.1776C266.9 24.3524 267 24.5752 267 24.8461C267 25.1345 266.904 25.3792 266.712 25.5802C266.519 25.7724 266.266 25.8685 265.951 25.8685Z" fill="white"/>
<path d="M232.282 49L234.522 44.1H235.033L237.273 49H236.727L234.669 44.401H234.879L232.821 49H232.282ZM233.164 47.691L233.318 47.271H236.167L236.321 47.691H233.164ZM240.143 49.042C239.775 49.042 239.434 48.9813 239.121 48.86C238.809 48.734 238.538 48.559 238.309 48.335C238.081 48.111 237.901 47.8473 237.77 47.544C237.644 47.2407 237.581 46.9093 237.581 46.55C237.581 46.1907 237.644 45.8593 237.77 45.556C237.901 45.2527 238.081 44.989 238.309 44.765C238.543 44.541 238.816 44.3683 239.128 44.247C239.441 44.121 239.782 44.058 240.15 44.058C240.505 44.058 240.839 44.1187 241.151 44.24C241.464 44.3567 241.728 44.534 241.942 44.772L241.613 45.101C241.413 44.8957 241.191 44.7487 240.948 44.66C240.706 44.5667 240.444 44.52 240.164 44.52C239.87 44.52 239.597 44.5713 239.345 44.674C239.093 44.772 238.874 44.9143 238.687 45.101C238.501 45.283 238.354 45.4977 238.246 45.745C238.144 45.9877 238.092 46.256 238.092 46.55C238.092 46.844 238.144 47.1147 238.246 47.362C238.354 47.6047 238.501 47.8193 238.687 48.006C238.874 48.188 239.093 48.3303 239.345 48.433C239.597 48.531 239.87 48.58 240.164 48.58C240.444 48.58 240.706 48.5333 240.948 48.44C241.191 48.3467 241.413 48.1973 241.613 47.992L241.942 48.321C241.728 48.559 241.464 48.7387 241.151 48.86C240.839 48.9813 240.503 49.042 240.143 49.042ZM243.937 49V44.548H242.215V44.1H246.177V44.548H244.455V49H243.937ZM247.005 49V44.1H247.523V49H247.005ZM250.455 49L248.285 44.1H248.845L250.875 48.713H250.567L252.611 44.1H253.136L250.966 49H250.455ZM254.309 46.291H256.899V46.732H254.309V46.291ZM254.365 48.552H257.312V49H253.847V44.1H257.207V44.548H254.365V48.552Z" fill="#FB9F2A"/>
<circle cx="264" cy="47" r="3" fill="#FCA721"/>
<path d="M237.098 85.5414V76.5423H237.577V85.5414H237.098ZM237.299 84.45C236.801 84.45 236.323 84.3702 235.863 84.2107C235.41 84.0447 235.059 83.8341 234.81 83.5788L235.088 83.0331C235.324 83.2629 235.64 83.4576 236.035 83.6171C236.438 83.7703 236.859 83.8469 237.299 83.8469C237.72 83.8469 238.062 83.7958 238.324 83.6937C238.592 83.5852 238.786 83.4416 238.908 83.2629C239.035 83.0842 239.099 82.8864 239.099 82.6694C239.099 82.4077 239.022 82.1971 238.869 82.0375C238.722 81.878 238.528 81.7535 238.285 81.6641C238.043 81.5684 237.775 81.4854 237.481 81.4152C237.187 81.345 236.894 81.2716 236.6 81.195C236.307 81.1121 236.035 81.0036 235.787 80.8695C235.544 80.7355 235.346 80.56 235.193 80.343C235.046 80.1196 234.973 79.8292 234.973 79.4718C234.973 79.1399 235.059 78.8368 235.231 78.5623C235.41 78.2815 235.681 78.0581 236.045 77.8922C236.409 77.7199 236.875 77.6337 237.443 77.6337C237.819 77.6337 238.193 77.688 238.563 77.7965C238.933 77.8986 239.252 78.0422 239.52 78.2273L239.281 78.7921C238.994 78.6006 238.687 78.4602 238.362 78.3709C238.043 78.2815 237.733 78.2368 237.433 78.2368C237.031 78.2368 236.699 78.2911 236.438 78.3996C236.176 78.5081 235.981 78.6549 235.854 78.84C235.732 79.0187 235.672 79.2229 235.672 79.4527C235.672 79.7144 235.745 79.925 235.892 80.0845C236.045 80.2441 236.243 80.3685 236.485 80.4579C236.734 80.5472 237.006 80.627 237.299 80.6972C237.593 80.7674 237.883 80.844 238.17 80.927C238.464 81.01 238.732 81.1185 238.975 81.2525C239.223 81.3801 239.421 81.5525 239.568 81.7695C239.721 81.9865 239.798 82.2705 239.798 82.6215C239.798 82.947 239.709 83.2501 239.53 83.531C239.351 83.8054 239.077 84.0288 238.706 84.2011C238.343 84.367 237.874 84.45 237.299 84.45ZM240.623 84.3926V83.9043L243.409 81.1759C243.665 80.927 243.856 80.71 243.984 80.5249C244.111 80.3334 244.198 80.1547 244.242 79.9888C244.287 79.8229 244.309 79.6665 244.309 79.5197C244.309 79.1304 244.175 78.824 243.907 78.6006C243.645 78.3773 243.256 78.2656 242.739 78.2656C242.343 78.2656 241.992 78.3262 241.686 78.4475C241.386 78.5687 241.128 78.757 240.911 79.0123L240.422 78.5911C240.684 78.2847 241.019 78.0486 241.428 77.8826C241.836 77.7167 242.292 77.6337 242.797 77.6337C243.25 77.6337 243.642 77.7071 243.974 77.8539C244.306 77.9943 244.561 78.2017 244.74 78.4762C244.925 78.7506 245.018 79.0729 245.018 79.4431C245.018 79.6601 244.986 79.8739 244.922 80.0845C244.864 80.2951 244.756 80.5185 244.596 80.7547C244.443 80.9844 244.217 81.2461 243.917 81.5397L241.361 84.0479L241.169 83.7799H245.324V84.3926H240.623ZM246.321 85.7903L246.742 84.0192L246.819 84.4309C246.672 84.4309 246.547 84.383 246.445 84.2873C246.35 84.1915 246.302 84.0671 246.302 83.9139C246.302 83.7607 246.35 83.6363 246.445 83.5405C246.547 83.4448 246.669 83.3969 246.809 83.3969C246.956 83.3969 247.074 83.448 247.163 83.5501C247.259 83.6522 247.307 83.7735 247.307 83.9139C247.307 83.965 247.304 84.016 247.297 84.0671C247.291 84.1181 247.278 84.1756 247.259 84.2394C247.24 84.3032 247.214 84.3798 247.182 84.4692L246.78 85.7903H246.321ZM248.28 84.3926V83.9043L251.066 81.1759C251.321 80.927 251.513 80.71 251.641 80.5249C251.768 80.3334 251.854 80.1547 251.899 79.9888C251.944 79.8229 251.966 79.6665 251.966 79.5197C251.966 79.1304 251.832 78.824 251.564 78.6006C251.302 78.3773 250.913 78.2656 250.396 78.2656C250 78.2656 249.649 78.3262 249.343 78.4475C249.043 78.5687 248.785 78.757 248.568 79.0123L248.079 78.5911C248.341 78.2847 248.676 78.0486 249.084 77.8826C249.493 77.7167 249.949 77.6337 250.453 77.6337C250.907 77.6337 251.299 77.7071 251.631 77.8539C251.963 77.9943 252.218 78.2017 252.397 78.4762C252.582 78.7506 252.675 79.0729 252.675 79.4431C252.675 79.6601 252.643 79.8739 252.579 80.0845C252.521 80.2951 252.413 80.5185 252.253 80.7547C252.1 80.9844 251.874 81.2461 251.574 81.5397L249.017 84.0479L248.826 83.7799H252.981V84.3926H248.28ZM256.498 84.45C255.981 84.45 255.522 84.316 255.12 84.0479C254.718 83.7735 254.402 83.3842 254.172 82.88C253.942 82.3694 253.827 81.7567 253.827 81.0419C253.827 80.3271 253.942 79.7175 254.172 79.2133C254.402 78.7028 254.718 78.3134 255.12 78.0454C255.522 77.7709 255.981 77.6337 256.498 77.6337C257.015 77.6337 257.475 77.7709 257.877 78.0454C258.279 78.3134 258.595 78.7028 258.825 79.2133C259.061 79.7175 259.179 80.3271 259.179 81.0419C259.179 81.7567 259.061 82.3694 258.825 82.88C258.595 83.3842 258.279 83.7735 257.877 84.0479C257.475 84.316 257.015 84.45 256.498 84.45ZM256.498 83.8182C256.894 83.8182 257.239 83.7129 257.532 83.5022C257.826 83.2852 258.055 82.9725 258.221 82.564C258.387 82.1492 258.47 81.6418 258.47 81.0419C258.47 80.4419 258.387 79.9377 258.221 79.5293C258.055 79.1144 257.826 78.8017 257.532 78.5911C257.239 78.3741 256.894 78.2656 256.498 78.2656C256.115 78.2656 255.774 78.3741 255.474 78.5911C255.174 78.8017 254.941 79.1144 254.775 79.5293C254.609 79.9377 254.526 80.4419 254.526 81.0419C254.526 81.6418 254.609 82.1492 254.775 82.564C254.941 82.9725 255.174 83.2852 255.474 83.5022C255.774 83.7129 256.115 83.8182 256.498 83.8182ZM262.837 84.45C262.32 84.45 261.86 84.316 261.458 84.0479C261.056 83.7735 260.74 83.3842 260.511 82.88C260.281 82.3694 260.166 81.7567 260.166 81.0419C260.166 80.3271 260.281 79.7175 260.511 79.2133C260.74 78.7028 261.056 78.3134 261.458 78.0454C261.86 77.7709 262.32 77.6337 262.837 77.6337C263.354 77.6337 263.813 77.7709 264.215 78.0454C264.618 78.3134 264.933 78.7028 265.163 79.2133C265.399 79.7175 265.517 80.3271 265.517 81.0419C265.517 81.7567 265.399 82.3694 265.163 82.88C264.933 83.3842 264.618 83.7735 264.215 84.0479C263.813 84.316 263.354 84.45 262.837 84.45ZM262.837 83.8182C263.233 83.8182 263.577 83.7129 263.871 83.5022C264.164 83.2852 264.394 82.9725 264.56 82.564C264.726 82.1492 264.809 81.6418 264.809 81.0419C264.809 80.4419 264.726 79.9377 264.56 79.5293C264.394 79.1144 264.164 78.8017 263.871 78.5911C263.577 78.3741 263.233 78.2656 262.837 78.2656C262.454 78.2656 262.112 78.3741 261.813 78.5911C261.513 78.8017 261.28 79.1144 261.114 79.5293C260.948 79.9377 260.865 80.4419 260.865 81.0419C260.865 81.6418 260.948 82.1492 261.114 82.564C261.28 82.9725 261.513 83.2852 261.813 83.5022C262.112 83.7129 262.454 83.8182 262.837 83.8182Z" fill="white"/>
<path d="M228.692 102V95.5858L228.998 95.9113H227.112V95.2986H229.381V102H228.692ZM240.219 96.9261C240.627 96.9261 240.981 97.0058 241.281 97.1654C241.588 97.3186 241.824 97.5547 241.99 97.8738C242.162 98.193 242.248 98.595 242.248 99.0801V102H241.568V99.1471C241.568 98.6174 241.441 98.2185 241.185 97.9504C240.937 97.676 240.582 97.5388 240.123 97.5388C239.778 97.5388 239.478 97.6122 239.223 97.759C238.974 97.8994 238.779 98.1068 238.639 98.3812C238.505 98.6493 238.438 98.9748 238.438 99.3577V102H237.758V99.1471C237.758 98.6174 237.631 98.2185 237.375 97.9504C237.12 97.676 236.763 97.5388 236.303 97.5388C235.965 97.5388 235.668 97.6122 235.413 97.759C235.157 97.8994 234.96 98.1068 234.819 98.3812C234.685 98.6493 234.618 98.9748 234.618 99.3577V102H233.938V96.9739H234.589V98.3334L234.484 98.094C234.637 97.7302 234.883 97.4462 235.221 97.242C235.566 97.0314 235.971 96.9261 236.437 96.9261C236.928 96.9261 237.347 97.0505 237.691 97.2994C238.036 97.542 238.259 97.9089 238.361 98.4004L238.093 98.2951C238.24 97.8866 238.499 97.5579 238.869 97.309C239.245 97.0537 239.695 96.9261 240.219 96.9261ZM246.14 102.048C245.655 102.048 245.218 101.939 244.829 101.722C244.446 101.499 244.143 101.196 243.919 100.813C243.696 100.424 243.584 99.98 243.584 99.4822C243.584 98.978 243.696 98.5344 243.919 98.1515C244.143 97.7685 244.446 97.4686 244.829 97.2516C245.212 97.0346 245.649 96.9261 246.14 96.9261C246.638 96.9261 247.078 97.0346 247.461 97.2516C247.851 97.4686 248.154 97.7685 248.371 98.1515C248.594 98.5344 248.706 98.978 248.706 99.4822C248.706 99.98 248.594 100.424 248.371 100.813C248.154 101.196 247.851 101.499 247.461 101.722C247.072 101.939 246.632 102.048 246.14 102.048ZM246.14 101.445C246.504 101.445 246.826 101.365 247.107 101.205C247.388 101.039 247.608 100.81 247.768 100.516C247.934 100.216 248.017 99.8715 248.017 99.4822C248.017 99.0865 247.934 98.7418 247.768 98.4482C247.608 98.1547 247.388 97.9281 247.107 97.7685C246.826 97.6026 246.507 97.5196 246.15 97.5196C245.792 97.5196 245.473 97.6026 245.192 97.7685C244.912 97.9281 244.688 98.1547 244.522 98.4482C244.356 98.7418 244.273 99.0865 244.273 99.4822C244.273 99.8715 244.356 100.216 244.522 100.516C244.688 100.81 244.912 101.039 245.192 101.205C245.473 101.365 245.789 101.445 246.14 101.445ZM252.659 96.9261C253.068 96.9261 253.425 97.0058 253.731 97.1654C254.044 97.3186 254.287 97.5547 254.459 97.8738C254.638 98.193 254.727 98.595 254.727 99.0801V102H254.047V99.1471C254.047 98.6174 253.913 98.2185 253.645 97.9504C253.384 97.676 253.013 97.5388 252.535 97.5388C252.177 97.5388 251.865 97.6122 251.597 97.759C251.335 97.8994 251.131 98.1068 250.984 98.3812C250.843 98.6493 250.773 98.9748 250.773 99.3577V102H250.094V96.9739H250.745V98.3525L250.639 98.094C250.799 97.7302 251.054 97.4462 251.405 97.242C251.756 97.0314 252.174 96.9261 252.659 96.9261ZM258.152 102.048C257.68 102.048 257.316 101.92 257.061 101.665C256.806 101.41 256.678 101.049 256.678 100.583V95.8634H257.358V100.545C257.358 100.838 257.431 101.065 257.578 101.225C257.731 101.384 257.948 101.464 258.229 101.464C258.529 101.464 258.778 101.378 258.976 101.205L259.215 101.694C259.081 101.815 258.918 101.904 258.727 101.962C258.542 102.019 258.35 102.048 258.152 102.048ZM255.778 97.5388V96.9739H258.889V97.5388H255.778ZM263.018 96.9261C263.426 96.9261 263.784 97.0058 264.09 97.1654C264.403 97.3186 264.646 97.5547 264.818 97.8738C264.997 98.193 265.086 98.595 265.086 99.0801V102H264.406V99.1471C264.406 98.6174 264.272 98.2185 264.004 97.9504C263.742 97.676 263.372 97.5388 262.894 97.5388C262.536 97.5388 262.223 97.6122 261.955 97.759C261.694 97.8994 261.489 98.1068 261.343 98.3812C261.202 98.6493 261.132 98.9748 261.132 99.3577V102H260.452V94.8965H261.132V98.3525L260.998 98.094C261.158 97.7302 261.413 97.4462 261.764 97.242C262.115 97.0314 262.533 96.9261 263.018 96.9261Z" fill="white"/>
<path d="M21.9516 83V77.1566H24.1387C24.634 77.1566 25.0597 77.2373 25.4159 77.3987C25.7721 77.5546 26.0448 77.7827 26.234 78.0832C26.4288 78.3782 26.5261 78.7371 26.5261 79.1601C26.5261 79.5719 26.4288 79.9281 26.234 80.2286C26.0448 80.5235 25.7721 80.7517 25.4159 80.9131C25.0597 81.0689 24.634 81.1468 24.1387 81.1468H22.2939L22.5694 80.863V83H21.9516ZM25.9418 83L24.4392 80.8797H25.107L26.618 83H25.9418ZM22.5694 80.9131L22.2939 80.6209H24.122C24.7064 80.6209 25.1488 80.4929 25.4493 80.2369C25.7554 79.9809 25.9084 79.622 25.9084 79.1601C25.9084 78.6926 25.7554 78.3309 25.4493 78.0749C25.1488 77.8189 24.7064 77.6909 24.122 77.6909H22.2939L22.5694 77.3987V80.9131ZM29.7204 83.0417C29.2641 83.0417 28.8634 82.9471 28.5184 82.7579C28.1733 82.5631 27.9034 82.2988 27.7086 81.9649C27.5139 81.6254 27.4165 81.2386 27.4165 80.8046C27.4165 80.3705 27.5083 79.9865 27.6919 79.6526C27.8812 79.3187 28.1371 79.0571 28.4599 78.8679C28.7883 78.6731 29.1556 78.5757 29.5618 78.5757C29.9736 78.5757 30.3381 78.6704 30.6554 78.8596C30.9781 79.0432 31.2313 79.3048 31.415 79.6442C31.5986 79.9782 31.6905 80.3649 31.6905 80.8046C31.6905 80.8324 31.6877 80.863 31.6821 80.8964C31.6821 80.9242 31.6821 80.9548 31.6821 80.9882H27.8672V80.5458H31.3649L31.1312 80.7211C31.1312 80.4039 31.0616 80.1228 30.9225 79.878C30.7889 79.6276 30.6053 79.4328 30.3715 79.2936C30.1378 79.1545 29.8679 79.085 29.5618 79.085C29.2613 79.085 28.9914 79.1545 28.7521 79.2936C28.5128 79.4328 28.3264 79.6276 28.1928 79.878C28.0592 80.1284 27.9925 80.415 27.9925 80.7378V80.8296C27.9925 81.1635 28.0648 81.4585 28.2095 81.7145C28.3598 81.9649 28.5657 82.1625 28.8272 82.3071C29.0943 82.4463 29.3976 82.5158 29.7371 82.5158C30.0042 82.5158 30.2519 82.4685 30.4801 82.3739C30.7138 82.2793 30.9141 82.1346 31.0811 81.9398L31.415 82.3238C31.2202 82.5576 30.9753 82.7357 30.6804 82.8581C30.391 82.9805 30.071 83.0417 29.7204 83.0417ZM35.159 83.0417C34.7806 83.0417 34.4384 82.9555 34.1323 82.783C33.8262 82.6049 33.5813 82.3517 33.3977 82.0233C33.2196 81.6894 33.1306 81.2832 33.1306 80.8046C33.1306 80.326 33.2196 79.9225 33.3977 79.5942C33.5758 79.2603 33.8178 79.007 34.1239 78.8345C34.43 78.662 34.775 78.5757 35.159 78.5757C35.5764 78.5757 35.9493 78.6704 36.2776 78.8596C36.6115 79.0432 36.8731 79.3048 37.0623 79.6442C37.2515 79.9782 37.3461 80.3649 37.3461 80.8046C37.3461 81.2498 37.2515 81.6393 37.0623 81.9732C36.8731 82.3071 36.6115 82.5687 36.2776 82.7579C35.9493 82.9471 35.5764 83.0417 35.159 83.0417ZM32.8968 84.6194V78.6175H33.4645V79.9364L33.406 80.8129L33.4895 81.6978V84.6194H32.8968ZM35.1173 82.5158C35.4289 82.5158 35.7072 82.4463 35.9521 82.3071C36.1969 82.1625 36.3917 81.9621 36.5364 81.7061C36.6811 81.4446 36.7534 81.144 36.7534 80.8046C36.7534 80.4651 36.6811 80.1674 36.5364 79.9114C36.3917 79.6554 36.1969 79.455 35.9521 79.3103C35.7072 79.1656 35.4289 79.0933 35.1173 79.0933C34.8057 79.0933 34.5246 79.1656 34.2742 79.3103C34.0293 79.455 33.8345 79.6554 33.6899 79.9114C33.5507 80.1674 33.4812 80.4651 33.4812 80.8046C33.4812 81.144 33.5507 81.4446 33.6899 81.7061C33.8345 81.9621 34.0293 82.1625 34.2742 82.3071C34.5246 82.4463 34.8057 82.5158 35.1173 82.5158ZM41.2762 83V82.0317L41.2512 81.8731V80.2536C41.2512 79.8808 41.1455 79.5942 40.934 79.3938C40.7281 79.1935 40.4192 79.0933 40.0074 79.0933C39.7236 79.0933 39.4537 79.1406 39.1977 79.2352C38.9417 79.3298 38.7246 79.455 38.5466 79.6109L38.2794 79.1684C38.502 78.9792 38.7692 78.8345 39.0808 78.7344C39.3924 78.6286 39.7208 78.5757 40.0658 78.5757C40.6335 78.5757 41.0703 78.7177 41.3764 79.0015C41.688 79.2797 41.8439 79.7055 41.8439 80.2787V83H41.2762ZM39.7653 83.0417C39.437 83.0417 39.1504 82.9889 38.9055 82.8831C38.6662 82.7718 38.4826 82.6216 38.3546 82.4324C38.2266 82.2376 38.1626 82.015 38.1626 81.7645C38.1626 81.5364 38.2154 81.3305 38.3212 81.1468C38.4325 80.9576 38.6106 80.8074 38.8554 80.6961C39.1058 80.5792 39.4397 80.5207 39.8571 80.5207H41.3681V80.9632H39.8738C39.4509 80.9632 39.1559 81.0383 38.989 81.1886C38.8276 81.3388 38.7469 81.5252 38.7469 81.7479C38.7469 81.9983 38.8443 82.1986 39.0391 82.3489C39.2338 82.4991 39.5065 82.5743 39.8571 82.5743C40.191 82.5743 40.4776 82.4991 40.7169 82.3489C40.9618 82.1931 41.1399 81.9705 41.2512 81.6811L41.3848 82.0901C41.2734 82.3795 41.0787 82.6104 40.8004 82.783C40.5277 82.9555 40.1827 83.0417 39.7653 83.0417ZM43.4055 84.6612C43.1996 84.6612 43.0021 84.6278 42.8128 84.561C42.6292 84.4942 42.4706 84.3941 42.337 84.2605L42.6125 83.8181C42.7238 83.9238 42.8435 84.0045 42.9715 84.0602C43.105 84.1214 43.2525 84.152 43.4139 84.152C43.6087 84.152 43.7756 84.0963 43.9147 83.985C44.0594 83.8793 44.1958 83.6901 44.3238 83.4174L44.6076 82.7746L44.6744 82.6828L46.4775 78.6175H47.0618L44.8664 83.5259C44.7439 83.8097 44.6076 84.0351 44.4573 84.2021C44.3126 84.369 44.154 84.4859 43.9815 84.5527C43.809 84.625 43.617 84.6612 43.4055 84.6612ZM44.5742 83.1252L42.5541 78.6175H43.1718L44.9582 82.6411L44.5742 83.1252ZM53.3726 78.5757C53.7287 78.5757 54.0376 78.6453 54.2991 78.7844C54.5663 78.918 54.7722 79.1239 54.9169 79.4022C55.0671 79.6804 55.1423 80.031 55.1423 80.454V83H54.5496V80.5124C54.5496 80.0505 54.4383 79.7027 54.2157 79.4689C53.9986 79.2296 53.6898 79.11 53.2891 79.11C52.9886 79.11 52.727 79.174 52.5044 79.302C52.2874 79.4244 52.1176 79.6053 51.9952 79.8446C51.8783 80.0783 51.8199 80.3621 51.8199 80.6961V83H51.2272V80.5124C51.2272 80.0505 51.1159 79.7027 50.8933 79.4689C50.6707 79.2296 50.3591 79.11 49.9584 79.11C49.6634 79.11 49.4046 79.174 49.182 79.302C48.9594 79.4244 48.7869 79.6053 48.6645 79.8446C48.5476 80.0783 48.4892 80.3621 48.4892 80.6961V83H47.8965V78.6175H48.4641V79.8029L48.3723 79.5942C48.5059 79.277 48.7201 79.0293 49.0151 78.8512C49.3156 78.6676 49.669 78.5757 50.0752 78.5757C50.5037 78.5757 50.8683 78.6843 51.1688 78.9013C51.4693 79.1128 51.6641 79.4328 51.7531 79.8613L51.5194 79.7695C51.6474 79.4133 51.8728 79.1267 52.1955 78.9097C52.5239 78.6871 52.9162 78.5757 53.3726 78.5757ZM58.6111 83.0417C58.1548 83.0417 57.7541 82.9471 57.409 82.7579C57.064 82.5631 56.7941 82.2988 56.5993 81.9649C56.4045 81.6254 56.3071 81.2386 56.3071 80.8046C56.3071 80.3705 56.399 79.9865 56.5826 79.6526C56.7718 79.3187 57.0278 79.0571 57.3506 78.8679C57.6789 78.6731 58.0462 78.5757 58.4525 78.5757C58.8643 78.5757 59.2288 78.6704 59.546 78.8596C59.8688 79.0432 60.122 79.3048 60.3057 79.6442C60.4893 79.9782 60.5811 80.3649 60.5811 80.8046C60.5811 80.8324 60.5784 80.863 60.5728 80.8964C60.5728 80.9242 60.5728 80.9548 60.5728 80.9882H56.7579V80.5458H60.2556L60.0218 80.7211C60.0218 80.4039 59.9523 80.1228 59.8132 79.878C59.6796 79.6276 59.4959 79.4328 59.2622 79.2936C59.0285 79.1545 58.7586 79.085 58.4525 79.085C58.152 79.085 57.8821 79.1545 57.6428 79.2936C57.4035 79.4328 57.217 79.6276 57.0835 79.878C56.9499 80.1284 56.8831 80.415 56.8831 80.7378V80.8296C56.8831 81.1635 56.9555 81.4585 57.1002 81.7145C57.2504 81.9649 57.4563 82.1625 57.7179 82.3071C57.985 82.4463 58.2883 82.5158 58.6278 82.5158C58.8949 82.5158 59.1426 82.4685 59.3707 82.3739C59.6045 82.2793 59.8048 82.1346 59.9718 81.9398L60.3057 82.3238C60.1109 82.5576 59.866 82.7357 59.5711 82.8581C59.2817 82.9805 58.9617 83.0417 58.6111 83.0417ZM64.0247 78.5757C64.3808 78.5757 64.6925 78.6453 64.9596 78.7844C65.2323 78.918 65.4438 79.1239 65.594 79.4022C65.7498 79.6804 65.8278 80.031 65.8278 80.454V83H65.2351V80.5124C65.2351 80.0505 65.1182 79.7027 64.8845 79.4689C64.6563 79.2296 64.3335 79.11 63.9161 79.11C63.6045 79.11 63.3318 79.174 63.0981 79.302C62.8699 79.4244 62.6918 79.6053 62.5638 79.8446C62.4414 80.0783 62.3802 80.3621 62.3802 80.6961V83H61.7875V78.6175H62.3551V79.8195L62.2633 79.5942C62.4024 79.277 62.625 79.0293 62.9311 78.8512C63.2372 78.6676 63.6017 78.5757 64.0247 78.5757ZM68.8144 83.0417C68.4026 83.0417 68.0854 82.9304 67.8628 82.7078C67.6402 82.4852 67.5289 82.1708 67.5289 81.7645V77.6492H68.1215V81.7312C68.1215 81.9872 68.1855 82.1847 68.3135 82.3238C68.4471 82.463 68.6363 82.5325 68.8812 82.5325C69.1427 82.5325 69.3598 82.4574 69.5323 82.3071L69.741 82.7329C69.6241 82.8386 69.4822 82.9165 69.3152 82.9666C69.1539 83.0167 68.9869 83.0417 68.8144 83.0417ZM66.7442 79.11V78.6175H69.4572V79.11H66.7442Z" fill="#999999"/>
<path d="M24.0869 100V94.6909H22.0334V94.1566H26.7582V94.6909H24.7046V100H24.0869ZM29.0248 100.042C28.5685 100.042 28.1678 99.9471 27.8227 99.7579C27.4777 99.5631 27.2078 99.2988 27.013 98.9649C26.8182 98.6254 26.7209 98.2386 26.7209 97.8046C26.7209 97.3705 26.8127 96.9865 26.9963 96.6526C27.1855 96.3187 27.4415 96.0571 27.7643 95.8679C28.0926 95.6731 28.4599 95.5757 28.8662 95.5757C29.278 95.5757 29.6425 95.6704 29.9597 95.8596C30.2825 96.0432 30.5357 96.3048 30.7194 96.6442C30.903 96.9782 30.9948 97.3649 30.9948 97.8046C30.9948 97.8324 30.9921 97.863 30.9865 97.8964C30.9865 97.9242 30.9865 97.9548 30.9865 97.9882H27.1716V97.5458H30.6693L30.4356 97.7211C30.4356 97.4039 30.366 97.1228 30.2269 96.878C30.0933 96.6276 29.9097 96.4328 29.6759 96.2936C29.4422 96.1545 29.1723 96.085 28.8662 96.085C28.5657 96.085 28.2958 96.1545 28.0565 96.2936C27.8172 96.4328 27.6307 96.6276 27.4972 96.878C27.3636 97.1284 27.2968 97.415 27.2968 97.7378V97.8296C27.2968 98.1635 27.3692 98.4585 27.5139 98.7145C27.6641 98.9649 27.87 99.1625 28.1316 99.3071C28.3987 99.4463 28.702 99.5158 29.0415 99.5158C29.3086 99.5158 29.5563 99.4685 29.7844 99.3739C30.0182 99.2793 30.2185 99.1346 30.3855 98.9398L30.7194 99.3238C30.5246 99.5576 30.2797 99.7357 29.9848 99.8581C29.6954 99.9805 29.3754 100.042 29.0248 100.042ZM32.2012 100V95.6175H32.7689V96.8112L32.7104 96.6025C32.8329 96.2686 33.0388 96.0154 33.3281 95.8429C33.6175 95.6648 33.9765 95.5757 34.405 95.5757V96.1517C34.3827 96.1517 34.3605 96.1517 34.3382 96.1517C34.3159 96.1462 34.2937 96.1434 34.2714 96.1434C33.8095 96.1434 33.4478 96.2853 33.1862 96.5691C32.9247 96.8474 32.7939 97.2453 32.7939 97.7628V100H32.2012ZM40.9625 95.5757C41.3187 95.5757 41.6276 95.6453 41.8891 95.7844C42.1562 95.918 42.3621 96.1239 42.5068 96.4022C42.6571 96.6804 42.7322 97.031 42.7322 97.454V100H42.1395V97.5124C42.1395 97.0505 42.0282 96.7027 41.8056 96.4689C41.5886 96.2296 41.2797 96.11 40.879 96.11C40.5785 96.11 40.317 96.174 40.0944 96.302C39.8773 96.4244 39.7076 96.6053 39.5852 96.8446C39.4683 97.0783 39.4099 97.3621 39.4099 97.6961V100H38.8172V97.5124C38.8172 97.0505 38.7059 96.7027 38.4833 96.4689C38.2607 96.2296 37.949 96.11 37.5483 96.11C37.2534 96.11 36.9946 96.174 36.772 96.302C36.5494 96.4244 36.3769 96.6053 36.2544 96.8446C36.1376 97.0783 36.0791 97.3621 36.0791 97.6961V100H35.4865V95.6175H36.0541V96.8029L35.9623 96.5942C36.0958 96.277 36.3101 96.0293 36.6051 95.8512C36.9056 95.6676 37.2589 95.5757 37.6652 95.5757C38.0937 95.5757 38.4582 95.6843 38.7587 95.9013C39.0593 96.1128 39.254 96.4328 39.3431 96.8613L39.1093 96.7695C39.2373 96.4133 39.4627 96.1267 39.7855 95.9097C40.1138 95.6871 40.5062 95.5757 40.9625 95.5757Z" fill="#999999"/>
<path d="M21.3414 156.014V148.069H22.1867V156.014H21.3414ZM21.6457 155.101C21.1724 155.101 20.7187 155.039 20.2848 154.915C19.8509 154.786 19.5015 154.62 19.2367 154.417L19.7016 153.386C19.9552 153.566 20.2538 153.715 20.5976 153.834C20.947 153.946 21.2992 154.003 21.6542 154.003C21.9247 154.003 22.1416 153.977 22.3051 153.926C22.4741 153.87 22.5981 153.794 22.677 153.698C22.7559 153.602 22.7953 153.493 22.7953 153.369C22.7953 153.211 22.7333 153.087 22.6094 152.997C22.4854 152.901 22.322 152.825 22.1191 152.768C21.9162 152.706 21.6908 152.65 21.4429 152.599C21.2006 152.543 20.9554 152.475 20.7075 152.397C20.4652 152.318 20.2426 152.216 20.0397 152.092C19.8368 151.968 19.6706 151.805 19.541 151.602C19.417 151.399 19.355 151.14 19.355 150.824C19.355 150.486 19.4452 150.179 19.6255 149.903C19.8115 149.621 20.0876 149.399 20.4539 149.235C20.8258 149.066 21.2907 148.982 21.8486 148.982C22.2205 148.982 22.5868 149.027 22.9475 149.117C23.3081 149.201 23.6265 149.331 23.9026 149.506L23.48 150.545C23.2039 150.388 22.9277 150.272 22.6516 150.199C22.3755 150.12 22.105 150.08 21.8402 150.08C21.5753 150.08 21.3583 150.111 21.1893 150.173C21.0202 150.235 20.8991 150.317 20.8258 150.419C20.7526 150.514 20.7159 150.627 20.7159 150.757C20.7159 150.909 20.7779 151.033 20.9019 151.129C21.0259 151.219 21.1893 151.292 21.3922 151.348C21.595 151.405 21.8176 151.461 22.0599 151.517C22.3079 151.574 22.553 151.639 22.7953 151.712C23.0433 151.785 23.2687 151.884 23.4715 152.008C23.6744 152.132 23.8378 152.295 23.9618 152.498C24.0914 152.701 24.1562 152.957 24.1562 153.267C24.1562 153.6 24.0632 153.904 23.8773 154.18C23.6913 154.456 23.4124 154.679 23.0405 154.848C22.6742 155.017 22.2093 155.101 21.6457 155.101ZM24.6693 155V154.112L26.9515 151.957C27.1319 151.794 27.2643 151.647 27.3488 151.517C27.4333 151.388 27.4897 151.269 27.5179 151.162C27.5517 151.055 27.5686 150.957 27.5686 150.867C27.5686 150.63 27.4869 150.45 27.3235 150.326C27.1657 150.196 26.9318 150.131 26.6219 150.131C26.3739 150.131 26.1429 150.179 25.9287 150.275C25.7202 150.371 25.5427 150.52 25.3962 150.723L24.3988 150.08C24.6242 149.742 24.9398 149.475 25.3455 149.277C25.7512 149.08 26.219 148.982 26.7487 148.982C27.1882 148.982 27.5714 149.055 27.8983 149.201C28.2307 149.342 28.4871 149.542 28.6675 149.802C28.8534 150.061 28.9464 150.371 28.9464 150.731C28.9464 150.923 28.921 151.115 28.8703 151.306C28.8252 151.492 28.7295 151.689 28.5829 151.898C28.4421 152.106 28.2336 152.34 27.9574 152.599L26.064 154.383L25.802 153.884H29.1408V155H24.6693ZM29.8391 156.302L30.397 154.273L30.583 155.034C30.3406 155.034 30.1406 154.963 29.9828 154.822C29.8307 154.682 29.7546 154.487 29.7546 154.239C29.7546 153.991 29.8335 153.794 29.9913 153.648C30.149 153.501 30.3435 153.428 30.5745 153.428C30.8112 153.428 31.0056 153.504 31.1577 153.656C31.3099 153.803 31.386 153.997 31.386 154.239C31.386 154.313 31.3803 154.386 31.3691 154.459C31.3578 154.527 31.3353 154.611 31.3014 154.713C31.2733 154.808 31.2254 154.932 31.1577 155.085L30.6759 156.302H29.8391ZM34.4292 155.101C33.9446 155.101 33.5106 154.983 33.1275 154.746C32.7443 154.504 32.4428 154.155 32.223 153.698C32.0032 153.242 31.8933 152.69 31.8933 152.042C31.8933 151.393 32.0032 150.841 32.223 150.385C32.4428 149.928 32.7443 149.582 33.1275 149.345C33.5106 149.103 33.9446 148.982 34.4292 148.982C34.9195 148.982 35.3534 149.103 35.7309 149.345C36.1141 149.582 36.4156 149.928 36.6354 150.385C36.8552 150.841 36.965 151.393 36.965 152.042C36.965 152.69 36.8552 153.242 36.6354 153.698C36.4156 154.155 36.1141 154.504 35.7309 154.746C35.3534 154.983 34.9195 155.101 34.4292 155.101ZM34.4292 153.943C34.6602 153.943 34.8603 153.879 35.0293 153.749C35.204 153.619 35.3393 153.414 35.4351 153.132C35.5365 152.85 35.5872 152.487 35.5872 152.042C35.5872 151.596 35.5365 151.233 35.4351 150.951C35.3393 150.669 35.204 150.464 35.0293 150.334C34.8603 150.204 34.6602 150.14 34.4292 150.14C34.2038 150.14 34.0037 150.204 33.829 150.334C33.66 150.464 33.5247 150.669 33.4233 150.951C33.3275 151.233 33.2796 151.596 33.2796 152.042C33.2796 152.487 33.3275 152.85 33.4233 153.132C33.5247 153.414 33.66 153.619 33.829 153.749C34.0037 153.879 34.2038 153.943 34.4292 153.943ZM40.1662 155.101C39.6816 155.101 39.2477 154.983 38.8645 154.746C38.4813 154.504 38.1798 154.155 37.96 153.698C37.7403 153.242 37.6304 152.69 37.6304 152.042C37.6304 151.393 37.7403 150.841 37.96 150.385C38.1798 149.928 38.4813 149.582 38.8645 149.345C39.2477 149.103 39.6816 148.982 40.1662 148.982C40.6565 148.982 41.0904 149.103 41.468 149.345C41.8511 149.582 42.1526 149.928 42.3724 150.385C42.5922 150.841 42.7021 151.393 42.7021 152.042C42.7021 152.69 42.5922 153.242 42.3724 153.698C42.1526 154.155 41.8511 154.504 41.468 154.746C41.0904 154.983 40.6565 155.101 40.1662 155.101ZM40.1662 153.943C40.3973 153.943 40.5973 153.879 40.7664 153.749C40.9411 153.619 41.0763 153.414 41.1721 153.132C41.2735 152.85 41.3243 152.487 41.3243 152.042C41.3243 151.596 41.2735 151.233 41.1721 150.951C41.0763 150.669 40.9411 150.464 40.7664 150.334C40.5973 150.204 40.3973 150.14 40.1662 150.14C39.9408 150.14 39.7408 150.204 39.5661 150.334C39.397 150.464 39.2618 150.669 39.1603 150.951C39.0645 151.233 39.0166 151.596 39.0166 152.042C39.0166 152.487 39.0645 152.85 39.1603 153.132C39.2618 153.414 39.397 153.619 39.5661 153.749C39.7408 153.879 39.9408 153.943 40.1662 153.943ZM45.9032 155.101C45.4186 155.101 44.9847 154.983 44.6015 154.746C44.2183 154.504 43.9168 154.155 43.6971 153.698C43.4773 153.242 43.3674 152.69 43.3674 152.042C43.3674 151.393 43.4773 150.841 43.6971 150.385C43.9168 149.928 44.2183 149.582 44.6015 149.345C44.9847 149.103 45.4186 148.982 45.9032 148.982C46.3935 148.982 46.8274 149.103 47.205 149.345C47.5882 149.582 47.8897 149.928 48.1094 150.385C48.3292 150.841 48.4391 151.393 48.4391 152.042C48.4391 152.69 48.3292 153.242 48.1094 153.698C47.8897 154.155 47.5882 154.504 47.205 154.746C46.8274 154.983 46.3935 155.101 45.9032 155.101ZM45.9032 153.943C46.1343 153.943 46.3343 153.879 46.5034 153.749C46.6781 153.619 46.8133 153.414 46.9091 153.132C47.0106 152.85 47.0613 152.487 47.0613 152.042C47.0613 151.596 47.0106 151.233 46.9091 150.951C46.8133 150.669 46.6781 150.464 46.5034 150.334C46.3343 150.204 46.1343 150.14 45.9032 150.14C45.6778 150.14 45.4778 150.204 45.3031 150.334C45.134 150.464 44.9988 150.669 44.8974 150.951C44.8016 151.233 44.7537 151.596 44.7537 152.042C44.7537 152.487 44.8016 152.85 44.8974 153.132C44.9988 153.414 45.134 153.619 45.3031 153.749C45.4778 153.879 45.6778 153.943 45.9032 153.943ZM54.479 155.042C54.0395 155.042 53.6309 154.969 53.2534 154.822C52.8815 154.67 52.5574 154.459 52.2813 154.189C52.0052 153.918 51.791 153.602 51.6389 153.242C51.4867 152.876 51.4107 152.475 51.4107 152.042C51.4107 151.608 51.4867 151.21 51.6389 150.85C51.791 150.483 52.0052 150.165 52.2813 149.894C52.5631 149.624 52.8899 149.415 53.2618 149.269C53.6338 149.117 54.0395 149.041 54.479 149.041C54.896 149.041 55.2849 149.108 55.6455 149.244C56.0118 149.379 56.3246 149.585 56.5838 149.861L56.3133 150.14C56.0597 149.892 55.778 149.714 55.468 149.607C55.1637 149.494 54.8397 149.438 54.4959 149.438C54.1184 149.438 53.7662 149.503 53.4393 149.632C53.1181 149.762 52.8364 149.945 52.5941 150.182C52.3574 150.419 52.1714 150.695 52.0362 151.01C51.9066 151.326 51.8418 151.67 51.8418 152.042C51.8418 152.413 51.9066 152.757 52.0362 153.073C52.1714 153.388 52.3574 153.664 52.5941 153.901C52.8364 154.138 53.1181 154.321 53.4393 154.451C53.7662 154.58 54.1184 154.645 54.4959 154.645C54.8397 154.645 55.1637 154.591 55.468 154.484C55.778 154.372 56.0597 154.189 56.3133 153.935L56.5838 154.214C56.3246 154.49 56.0118 154.699 55.6455 154.839C55.2849 154.975 54.896 155.042 54.479 155.042ZM60.5992 155V153.994L60.5822 153.842V152.185C60.5822 151.774 60.4695 151.461 60.2441 151.247C60.0244 151.033 59.7003 150.926 59.2721 150.926C58.9678 150.926 58.6832 150.979 58.4183 151.086C58.1591 151.188 57.9365 151.32 57.7505 151.484L57.5392 151.179C57.759 150.982 58.0239 150.83 58.3338 150.723C58.6437 150.61 58.9678 150.554 59.3059 150.554C59.8525 150.554 60.2723 150.692 60.5653 150.968C60.8584 151.244 61.0049 151.655 61.0049 152.202V155H60.5992ZM59.01 155.034C58.6832 155.034 58.3986 154.983 58.1563 154.882C57.9196 154.775 57.7365 154.625 57.6069 154.434C57.4829 154.242 57.4209 154.022 57.4209 153.774C57.4209 153.549 57.4716 153.346 57.573 153.166C57.6801 152.98 57.8548 152.83 58.0971 152.718C58.3394 152.599 58.6635 152.54 59.0692 152.54H60.6921V152.87H59.0776C58.6212 152.87 58.3 152.954 58.114 153.123C57.9337 153.293 57.8435 153.504 57.8435 153.757C57.8435 154.039 57.9506 154.265 58.1647 154.434C58.3789 154.603 58.6804 154.687 59.0692 154.687C59.4411 154.687 59.7539 154.603 60.0075 154.434C60.2667 154.265 60.4583 154.019 60.5822 153.698L60.7006 153.986C60.5822 154.307 60.3794 154.563 60.092 154.755C59.8102 154.941 59.4496 155.034 59.01 155.034ZM63.862 155.034C63.4957 155.034 63.152 154.98 62.8308 154.873C62.5152 154.766 62.2701 154.631 62.0954 154.467L62.2898 154.129C62.4588 154.276 62.6843 154.403 62.966 154.51C63.2478 154.611 63.5521 154.662 63.8789 154.662C64.341 154.662 64.6735 154.586 64.8764 154.434C65.0792 154.282 65.1807 154.081 65.1807 153.834C65.1807 153.653 65.1271 153.512 65.0201 153.411C64.9186 153.304 64.7806 153.222 64.6059 153.166C64.4312 153.109 64.2396 153.064 64.0311 153.03C63.8226 152.991 63.6141 152.949 63.4056 152.904C63.1971 152.859 63.0055 152.794 62.8308 152.709C62.6561 152.625 62.5152 152.509 62.4081 152.363C62.3067 152.211 62.256 152.011 62.256 151.763C62.256 151.537 62.318 151.334 62.4419 151.154C62.5659 150.974 62.7519 150.83 62.9998 150.723C63.2478 150.61 63.5577 150.554 63.9296 150.554C64.2058 150.554 64.4819 150.593 64.758 150.672C65.0398 150.751 65.268 150.855 65.4427 150.985L65.2483 151.323C65.0623 151.182 64.8538 151.081 64.6228 151.019C64.3917 150.957 64.1579 150.926 63.9212 150.926C63.4929 150.926 63.1773 151.005 62.9745 151.162C62.7772 151.32 62.6786 151.517 62.6786 151.754C62.6786 151.94 62.7293 152.089 62.8308 152.202C62.9378 152.309 63.0787 152.394 63.2534 152.456C63.4281 152.512 63.6197 152.56 63.8282 152.599C64.0367 152.633 64.2452 152.673 64.4537 152.718C64.6622 152.763 64.8538 152.828 65.0285 152.912C65.2032 152.991 65.3413 153.104 65.4427 153.25C65.5498 153.391 65.6033 153.583 65.6033 153.825C65.6033 154.067 65.5357 154.279 65.4004 154.459C65.2708 154.639 65.0764 154.78 64.8172 154.882C64.558 154.983 64.2396 155.034 63.862 155.034ZM68.9383 150.554C69.2989 150.554 69.6117 150.624 69.8765 150.765C70.147 150.9 70.3555 151.109 70.502 151.391C70.6542 151.667 70.7303 152.011 70.7303 152.422V155H70.3076V152.456C70.3076 151.96 70.1808 151.582 69.9272 151.323C69.6793 151.064 69.3299 150.934 68.8791 150.934C68.5353 150.934 68.2367 151.005 67.9831 151.146C67.7295 151.286 67.5351 151.484 67.3999 151.737C67.2702 151.991 67.2054 152.295 67.2054 152.65V155H66.7828V148.728H67.2054V151.813L67.1294 151.678C67.2646 151.329 67.4872 151.055 67.7971 150.858C68.1071 150.655 68.4874 150.554 68.9383 150.554ZM73.7875 155L76.5094 149.083H76.9405L79.6623 155H79.1974L76.6277 149.354H76.8137L74.2525 155H73.7875ZM74.785 153.335L74.9287 152.971H78.4704L78.6141 153.335H74.785ZM82.2589 155.034C81.8476 155.034 81.4756 154.941 81.1432 154.755C80.8163 154.563 80.5571 154.298 80.3655 153.96C80.1739 153.622 80.0781 153.233 80.0781 152.794C80.0781 152.349 80.1739 151.96 80.3655 151.627C80.5571 151.289 80.8163 151.027 81.1432 150.841C81.4756 150.65 81.8476 150.554 82.2589 150.554C82.6478 150.554 82.9972 150.644 83.3071 150.824C83.6227 151.005 83.8706 151.261 84.0509 151.594C84.2369 151.926 84.3299 152.326 84.3299 152.794C84.3299 153.25 84.2397 153.648 84.0594 153.986C83.8791 154.324 83.6311 154.583 83.3155 154.763C83.0056 154.944 82.6534 155.034 82.2589 155.034ZM82.2843 154.653C82.6224 154.653 82.9239 154.577 83.1887 154.425C83.4592 154.267 83.6706 154.048 83.8227 153.766C83.9805 153.484 84.0594 153.16 84.0594 152.794C84.0594 152.422 83.9805 152.098 83.8227 151.822C83.6706 151.54 83.4592 151.323 83.1887 151.171C82.9239 151.013 82.6224 150.934 82.2843 150.934C81.9462 150.934 81.6419 151.013 81.3714 151.171C81.1065 151.323 80.8952 151.54 80.7374 151.822C80.5853 152.098 80.5092 152.422 80.5092 152.794C80.5092 153.16 80.5853 153.484 80.7374 153.766C80.8952 154.048 81.1065 154.267 81.3714 154.425C81.6419 154.577 81.9462 154.653 82.2843 154.653ZM84.0678 155V153.555L84.1439 152.785L84.0594 152.016V148.728H84.482V155H84.0678ZM87.3797 155L85.3933 150.588H85.8413L87.7009 154.763H87.498L89.3746 150.588H89.8057L87.8108 155H87.3797ZM93.3786 155V153.994L93.3617 153.842V152.185C93.3617 151.774 93.249 151.461 93.0236 151.247C92.8038 151.033 92.4798 150.926 92.0515 150.926C91.7472 150.926 91.4627 150.979 91.1978 151.086C90.9386 151.188 90.716 151.32 90.53 151.484L90.3187 151.179C90.5385 150.982 90.8033 150.83 91.1133 150.723C91.4232 150.61 91.7472 150.554 92.0854 150.554C92.632 150.554 93.0518 150.692 93.3448 150.968C93.6379 151.244 93.7844 151.655 93.7844 152.202V155H93.3786ZM91.7895 155.034C91.4627 155.034 91.1781 154.983 90.9358 154.882C90.6991 154.775 90.5159 154.625 90.3863 154.434C90.2624 154.242 90.2004 154.022 90.2004 153.774C90.2004 153.549 90.2511 153.346 90.3525 153.166C90.4596 152.98 90.6343 152.83 90.8766 152.718C91.1189 152.599 91.4429 152.54 91.8487 152.54H93.4716V152.87H91.8571C91.4007 152.87 91.0795 152.954 90.8935 153.123C90.7132 153.293 90.623 153.504 90.623 153.757C90.623 154.039 90.7301 154.265 90.9442 154.434C91.1584 154.603 91.4598 154.687 91.8487 154.687C92.2206 154.687 92.5334 154.603 92.7869 154.434C93.0462 154.265 93.2378 154.019 93.3617 153.698L93.4801 153.986C93.3617 154.307 93.1589 154.563 92.8715 154.755C92.5897 154.941 92.229 155.034 91.7895 155.034ZM97.6812 150.554C98.0418 150.554 98.3546 150.624 98.6195 150.765C98.8899 150.9 99.0984 151.109 99.245 151.391C99.3971 151.667 99.4732 152.011 99.4732 152.422V155H99.0505V152.456C99.0505 151.96 98.9238 151.582 98.6702 151.323C98.4222 151.064 98.0728 150.934 97.622 150.934C97.2783 150.934 96.9796 151.005 96.726 151.146C96.4724 151.286 96.278 151.484 96.1428 151.737C96.0132 151.991 95.9484 152.295 95.9484 152.65V155H95.5257V150.588H95.9315V151.813L95.8723 151.678C96.0075 151.329 96.2301 151.055 96.5401 150.858C96.85 150.655 97.2304 150.554 97.6812 150.554ZM102.963 155.034C102.535 155.034 102.151 154.938 101.813 154.746C101.481 154.555 101.216 154.29 101.019 153.952C100.827 153.614 100.731 153.228 100.731 152.794C100.731 152.354 100.827 151.965 101.019 151.627C101.216 151.289 101.481 151.027 101.813 150.841C102.151 150.65 102.535 150.554 102.963 150.554C103.318 150.554 103.639 150.621 103.927 150.757C104.22 150.892 104.456 151.095 104.637 151.365L104.324 151.594C104.166 151.368 103.969 151.202 103.732 151.095C103.495 150.988 103.239 150.934 102.963 150.934C102.619 150.934 102.309 151.013 102.033 151.171C101.763 151.323 101.549 151.54 101.391 151.822C101.239 152.098 101.162 152.422 101.162 152.794C101.162 153.166 101.239 153.493 101.391 153.774C101.549 154.05 101.763 154.267 102.033 154.425C102.309 154.577 102.619 154.653 102.963 154.653C103.239 154.653 103.495 154.6 103.732 154.493C103.969 154.386 104.166 154.22 104.324 153.994L104.637 154.222C104.456 154.493 104.22 154.696 103.927 154.831C103.639 154.966 103.318 155.034 102.963 155.034ZM107.62 155.034C107.174 155.034 106.78 154.938 106.436 154.746C106.098 154.555 105.83 154.29 105.633 153.952C105.442 153.614 105.346 153.228 105.346 152.794C105.346 152.354 105.436 151.968 105.616 151.636C105.802 151.298 106.056 151.033 106.377 150.841C106.698 150.65 107.059 150.554 107.459 150.554C107.859 150.554 108.217 150.647 108.533 150.833C108.854 151.019 109.104 151.281 109.285 151.619C109.471 151.951 109.564 152.337 109.564 152.777C109.564 152.794 109.561 152.814 109.555 152.836C109.555 152.853 109.555 152.873 109.555 152.895H105.659V152.566H109.327L109.158 152.726C109.164 152.382 109.09 152.075 108.938 151.805C108.792 151.529 108.592 151.315 108.338 151.162C108.085 151.005 107.791 150.926 107.459 150.926C107.132 150.926 106.839 151.005 106.58 151.162C106.326 151.315 106.126 151.529 105.98 151.805C105.833 152.075 105.76 152.385 105.76 152.735V152.811C105.76 153.171 105.839 153.493 105.997 153.774C106.16 154.05 106.383 154.267 106.664 154.425C106.946 154.577 107.267 154.653 107.628 154.653C107.91 154.653 108.172 154.603 108.414 154.501C108.662 154.4 108.871 154.245 109.04 154.036L109.285 154.315C109.093 154.552 108.851 154.732 108.558 154.856C108.27 154.975 107.958 155.034 107.62 155.034Z" fill="white"/>
<defs>
<linearGradient id="paint0_linear_802_220" x1="230.36" y1="22.3594" x2="230.36" y2="33.7994" gradientUnits="userSpaceOnUse">
<stop stop-color="#FFC701"/>
<stop offset="1" stop-color="#F99533"/>
</linearGradient>
</defs>
</svg>
