<svg width="61" height="19" viewBox="0 0 61 19" fill="none" xmlns="http://www.w3.org/2000/svg">
<path d="M0 5.62387C0 5.27594 0.180853 4.95301 0.477523 4.77122L4.47752 2.32016C4.79814 2.12369 5.20186 2.12369 5.52248 2.32016L9.52248 4.77122C9.81915 4.95301 10 5.27594 10 5.62387V17C10 17.5523 9.55228 18 9 18H1C0.447715 18 0 17.5523 0 17V5.62387Z" fill="url(#paint0_linear_802_221)"/>
<path d="M14.8711 17.9497V1.67406H17.8937V15.3921H26.4035V17.9497H14.8711Z" fill="white"/>
<path d="M34.2333 18.1124C32.8537 18.1124 31.6447 17.8412 30.6061 17.2987C29.5831 16.7406 28.7848 15.9811 28.2113 15.0201C27.6533 14.059 27.3743 12.9662 27.3743 11.7417C27.3743 10.5016 27.6455 9.40886 28.188 8.46332C28.7461 7.50228 29.5056 6.75051 30.4666 6.20799C31.4432 5.66546 32.5515 5.3942 33.7915 5.3942C35.0005 5.3942 36.0778 5.65771 37.0234 6.18473C37.9689 6.71175 38.7129 7.45578 39.2555 8.41682C39.798 9.37786 40.0692 10.5094 40.0692 11.8114C40.0692 11.9355 40.0615 12.075 40.046 12.23C40.046 12.385 40.0382 12.5322 40.0227 12.6717H29.6761V10.7419H38.4882L37.3489 11.3464C37.3644 10.6334 37.2171 10.0056 36.9071 9.46311C36.5971 8.92059 36.1708 8.49432 35.6283 8.18431C35.1013 7.8743 34.489 7.71929 33.7915 7.71929C33.0785 7.71929 32.4507 7.8743 31.9082 8.18431C31.3812 8.49432 30.9626 8.92834 30.6526 9.48636C30.3581 10.0289 30.2109 10.6722 30.2109 11.4162V11.8812C30.2109 12.6252 30.3814 13.284 30.7224 13.8575C31.0634 14.431 31.5439 14.8728 32.1639 15.1828C32.784 15.4928 33.497 15.6478 34.303 15.6478C35.0005 15.6478 35.6283 15.5393 36.1863 15.3223C36.7444 15.1053 37.2404 14.7643 37.6744 14.2993L39.2322 16.0896C38.6742 16.7406 37.9689 17.2444 37.1164 17.6009C36.2793 17.9419 35.3183 18.1124 34.2333 18.1124Z" fill="white"/>
<path d="M45.9068 9.16085H54.0214V11.7184H45.9068V9.16085ZM46.1626 17.9497H43.14V1.67406H55.0212V4.20841H46.1626V17.9497Z" fill="white"/>
<path d="M57.6652 17.9497V5.53371H60.5716V17.9497H57.6652ZM59.1301 3.48763C58.5875 3.48763 58.138 3.31713 57.7815 2.97611C57.4405 2.6351 57.27 2.22433 57.27 1.74382C57.27 1.2478 57.4405 0.837031 57.7815 0.511518C58.138 0.170506 58.5875 0 59.1301 0C59.6726 0 60.1143 0.162756 60.4554 0.488268C60.8119 0.79828 60.9901 1.19355 60.9901 1.67406C60.9901 2.18558 60.8196 2.6196 60.4786 2.97611C60.1376 3.31713 59.6881 3.48763 59.1301 3.48763Z" fill="white"/>
<defs>
<linearGradient id="paint0_linear_802_221" x1="5" y1="2" x2="5" y2="18" gradientUnits="userSpaceOnUse">
<stop stop-color="#FFC701"/>
<stop offset="1" stop-color="#F99533"/>
</linearGradient>
</defs>
</svg>
